<svg width="130" height="79" viewBox="0 0 130 79" fill="none" xmlns="http://www.w3.org/2000/svg">
<path d="M18.4475 41.4783H12.7455L7.04358 29.7826L4.98321 33.4783V41.4783H0V12.4783H4.98321V26.6087L12.3143 12.4783H17.8246L9.91851 26.1739L18.4475 41.4783Z" fill="white"/>
<path d="M18.4475 41.4783H12.7455L7.04358 29.7826L4.98321 33.4783V41.4783H0V12.4783H4.98321V26.6087L12.3143 12.4783H17.8246L9.91851 26.1739L18.4475 41.4783Z" fill="white"/>
<path d="M26.461 41.4783H21.4777V12.4783H26.461V41.4783Z" fill="white"/>
<path d="M26.461 41.4783H21.4777V12.4783H26.461V41.4783Z" fill="white"/>
<path d="M48.6829 41.4783H43.9392L36.8957 24.6957V41.4783H31.9125V12.4783H36.8957L43.6518 28.7826V12.4783H48.6829V41.4783Z" fill="white"/>
<path d="M48.6829 41.4783H43.9392L36.8957 24.6957V41.4783H31.9125V12.4783H36.8957L43.6518 28.7826V12.4783H48.6829V41.4783Z" fill="white"/>
<path d="M62.3815 42C55.9608 42 53.0859 35.8696 53.0859 27C53.0859 18.087 55.9608 12 62.3815 12C66.5501 12 68.8021 14.8696 69.8084 18.3043L65.7835 19.6522C65.1606 17.5652 64.346 16.0435 62.3815 16.0435C59.6503 16.0435 58.2128 19.913 58.2128 27C58.2128 34.0435 59.6503 37.9565 62.3815 37.9565C63.8189 37.9565 64.8252 37.3913 65.496 36.4348V30.1739H61.6148V26.1739H69.9521V38.3478C68.0355 40.6957 65.6397 42 62.3815 42Z" fill="white"/>
<path d="M62.3815 42C55.9608 42 53.0859 35.8696 53.0859 27C53.0859 18.087 55.9608 12 62.3815 12C66.5501 12 68.8021 14.8696 69.8084 18.3043L65.7835 19.6522C65.1606 17.5652 64.346 16.0435 62.3815 16.0435C59.6503 16.0435 58.2128 19.913 58.2128 27C58.2128 34.0435 59.6503 37.9565 62.3815 37.9565C63.8189 37.9565 64.8252 37.3913 65.496 36.4348V30.1739H61.6148V26.1739H69.9521V38.3478C68.0355 40.6957 65.6397 42 62.3815 42Z" fill="white"/>
<path d="M87.9957 41.4783H74.9147V12.4783H79.8979V37.4783H87.9957V41.4783Z" fill="white"/>
<path d="M87.9957 41.4783H74.9147V12.4783H79.8979V37.4783H87.9957V41.4783Z" fill="white"/>
<path d="M107.909 41.4783H102.782L101.68 35.5652H95.3548L94.2528 41.4783H89.1258L95.6423 12.4783H101.392L107.909 41.4783ZM101.105 31.5652L98.5172 17.6522L95.9298 31.5652H101.105Z" fill="white"/>
<path d="M107.909 41.4783H102.782L101.68 35.5652H95.3548L94.2528 41.4783H89.1258L95.6423 12.4783H101.392L107.909 41.4783ZM101.105 31.5652L98.5172 17.6522L95.9298 31.5652H101.105Z" fill="white"/>
<path d="M10.3175 79C3.03144 79 0 72.5217 0 64C0 55.4348 3.03144 49 10.3175 49C15.5295 49 17.4441 52.3478 18.5609 55.3043L14.0935 56.6522C13.2958 54.4348 12.3917 53.0435 10.3175 53.0435C6.9138 53.0435 5.69059 57.6957 5.69059 64C5.69059 70.3043 6.9138 74.9565 10.3175 74.9565C12.6576 74.9565 13.6149 73.087 14.1467 70.6522L18.6673 72C17.71 75.2609 15.689 79 10.3175 79Z" fill="#FFF72C"/>
<path d="M41.2759 78.4783H35.3194L31.1179 67.3913H28.5651V78.4783H23.0341V49.4783H31.8625C37.1276 49.4783 40.9568 53 40.9568 58.3043C40.9568 63.3043 38.2977 65.5217 36.2235 66.3043L41.2759 78.4783ZM31.0647 63.3913C33.8303 63.3913 35.2662 61.3478 35.2662 58.4348C35.2662 55.4783 33.8303 53.4783 31.0647 53.4783H28.5651V63.3913H31.0647Z" fill="#FFF72C"/>
<path d="M56.4165 78.4783H50.8854V66.3478L42.6952 49.4783H48.6517L53.651 61.8696L58.7033 49.4783H64.5535L56.4165 66.3478V78.4783Z" fill="#FFF72C"/>
<path d="M72.971 78.4783H67.4399V49.4783H76.0024C82.4907 49.4783 85.3626 53.6522 85.3626 58.4348C85.3626 63.2174 82.4907 67.3913 76.0024 67.3913H72.971V78.4783ZM75.4706 63.3913C78.2361 63.3913 79.672 61.3478 79.672 58.4348C79.672 55.4783 78.2361 53.4783 75.4706 53.4783H72.971V63.3913H75.4706Z" fill="#FFF72C"/>
<path d="M98.6036 78.4783H93.0725V53.4783H87.5947V49.4783H104.081V53.4783H98.6036V78.4783Z" fill="#FFF72C"/>
<path d="M116.682 79C109.343 79 106.418 72.4348 106.418 64C106.418 55.6087 109.343 49 116.682 49C124.022 49 127 55.6087 127 64C127 72.4348 124.022 79 116.682 79ZM116.682 74.9565C120.139 74.9565 121.309 70.0435 121.309 64C121.309 57.8696 120.139 53.0435 116.682 53.0435C113.279 53.0435 112.109 57.8696 112.109 64C112.109 70.0435 113.279 74.9565 116.682 74.9565Z" fill="#FFF72C"/>
<path d="M118.331 1.30662C118.491 1.18312 118.72 1.19368 118.892 1.28284C119.042 1.3958 119.15 1.55161 119.276 1.68953C119.73 2.20329 120.208 2.69536 120.69 3.18324C120.945 3.45163 121.22 3.71376 121.399 4.04147C121.493 4.1836 121.433 4.35722 121.359 4.49415C121.11 4.95864 120.701 5.3042 120.385 5.7177C120.103 6.19009 120.105 6.7736 120.21 7.299C120.319 7.776 120.506 8.25549 120.846 8.61732C121.397 9.19148 122.221 9.441 123.002 9.40942C123.502 9.39233 123.978 9.19773 124.396 8.93267C124.877 8.62526 125.177 8.10602 125.359 7.57799C125.522 7.07096 125.349 6.55468 125.305 6.04648C125.274 5.77132 125.505 5.5418 125.761 5.49257C126.202 5.40495 126.654 5.43321 127.1 5.44814C127.507 5.47762 127.915 5.52583 128.305 5.64863C128.521 5.71979 128.706 5.88738 128.784 6.1031C128.794 6.12217 128.705 6.54513 128.712 6.5242C128.636 6.7608 128.501 6.96999 128.39 7.19053C127.27 9.34673 126.127 11.4924 125.001 13.6452C122.722 12.5129 120.237 11.8561 117.732 11.4557C115.065 10.9541 112.296 11.1613 109.679 11.8412C109.099 9.37578 108.514 6.91092 107.935 4.44546C107.834 4.12838 107.917 3.79258 107.969 3.47444C108.074 3.37154 108.226 3.33918 108.368 3.34871C109.09 3.39426 109.814 3.44396 110.528 3.55945C110.727 3.59281 110.965 3.65599 111.036 3.87094C111.157 4.24072 110.944 4.60082 110.8 4.93077C110.571 5.42072 110.662 5.98226 110.815 6.47959C110.982 7.01296 111.354 7.46743 111.825 7.76458C112.614 8.26892 113.629 8.38151 114.52 8.10201C115.015 7.94201 115.364 7.51458 115.599 7.0683C115.864 6.5396 116.048 5.95162 116.019 5.35443C115.989 4.86489 115.774 4.41193 115.523 3.99959C115.431 3.85703 115.373 3.71277 115.336 3.53331C115.357 3.35254 115.542 3.19625 115.712 3.09387C116.609 2.53381 117.466 1.91205 118.331 1.30662Z" fill="#FFF72C"/>
<path d="M118.769 41.9784H110V13.9999H118.433C123.416 13.9999 125.764 16.1958 125.764 20.3697C125.764 24.0219 123.991 26.2393 121.308 27.0219C124.231 27.4567 126.195 30.6306 126.195 34.1523C126.195 38.7175 123.991 41.9784 118.769 41.9784ZM117.235 25.1958C119.775 25.1958 120.637 23.5001 120.637 21.1088C120.637 18.7175 119.775 16.9784 117.235 16.9784H114.983V25.1958H117.235ZM117.427 37.9784C119.966 37.9784 121.068 36.3697 121.068 33.5871C121.068 31.1523 119.966 29.1958 117.427 29.1958H114.983V37.9784H117.427Z" fill="white"/>
<path d="M118.769 41.9784H110V13.9999H118.433C123.416 13.9999 125.764 16.1958 125.764 20.3697C125.764 24.0219 123.991 26.2393 121.308 27.0219C124.231 27.4567 126.195 30.6306 126.195 34.1523C126.195 38.7175 123.991 41.9784 118.769 41.9784ZM117.235 25.1958C119.775 25.1958 120.637 23.5001 120.637 21.1088C120.637 18.7175 119.775 16.9784 117.235 16.9784H114.983V25.1958H117.235ZM117.427 37.9784C119.966 37.9784 121.068 36.3697 121.068 33.5871C121.068 31.1523 119.966 29.1958 117.427 29.1958H114.983V37.9784H117.427Z" fill="white"/>
<path d="M114.732 12.6522C116.56 12.7153 118.385 12.9593 120.156 13.4226C121.394 13.7596 122 13.9999 123.5 14.9999C124.167 15.4447 124.854 16.5209 125 16.9999C122.969 15.9784 118.639 15.1132 116.38 14.8793C114.207 14.6785 112.144 14.5849 110 14.9999C110 14.5 110 14 110 13C111.699 12.5426 112.978 12.6105 114.732 12.6522Z" fill="#FFF72C"/>
</svg>
