<svg width="32" height="32" viewBox="0 0 32 32" fill="none" xmlns="http://www.w3.org/2000/svg">
<path d="M16 32C24.8366 32 32 24.8366 32 16C32 7.16344 24.8366 0 16 0C7.16344 0 0 7.16344 0 16C0 24.8366 7.16344 32 16 32Z" fill="#2A9CDA"/>
<path d="M5.61046 16.6809C7.48981 15.6538 9.58766 14.7967 11.5478 13.9351C14.92 12.5239 18.3056 11.1372 21.7253 9.84625C22.3906 9.62629 23.5862 9.4112 23.7034 10.3894C23.6392 11.7741 23.3751 13.1507 23.194 14.5273C22.7343 17.5546 22.203 20.5715 21.6848 23.5888C21.5063 24.5938 20.2373 25.1141 19.4253 24.4709C17.4738 23.1632 15.5074 21.8682 13.5809 20.5301C12.9499 19.894 13.535 18.9803 14.0987 18.526C15.7059 16.9546 17.4104 15.6195 18.9337 13.9668C19.3446 12.9824 18.1305 13.812 17.73 14.0662C15.5297 15.5706 13.3832 17.1667 11.0634 18.4888C9.8784 19.136 8.4973 18.583 7.31286 18.2219C6.25089 17.7856 4.69467 17.3461 5.61036 16.681L5.61046 16.6809Z" fill="white"/>
</svg>
